<?xml version="1.0"?>
<svg xmlns="http://www.w3.org/2000/svg" viewBox="0 0 246 264" width="492" height="528">
<defs><linearGradient id="dg" x1="35" y1="0" x2="220" y2="180" gradientUnits="userSpaceOnUse"><stop offset="0" stop-color="#1C2F8F"></stop><stop offset="1" stop-color="#0C1440"></stop></linearGradient><linearGradient id="lg" x1="30" y1="260" x2="230" y2="105" gradientUnits="userSpaceOnUse"><stop offset="0" stop-color="#F0D48A"></stop><stop offset="1" stop-color="#C79A4B"></stop></linearGradient></defs>
  <path d="M203.25,77.02L202.08,76.84L202.32,76.32L201.50,75.19L188.48,62.25L171.57,50.01L164.25,46.12L156.35,42.84L138.25,38.07L127.79,37.21L118.49,37.10L107.93,38.19L98.82,39.86L85.50,44.15L76.47,48.85L68.42,54.50L68.40,55.14L70.04,56.06L69.93,57.11L66.59,55.11L65.36,56.69L64.76,55.75L67.56,53.75L67.31,53.01L67.87,52.00L77.56,39.56L96.04,21.35L116.22,8.55L122.86,5.17L126.98,4.37L133.97,4.17L141.23,6.81L146.81,10.62L161.53,23.01L175.33,36.61L191.46,55.67L191.83,56.33L191.22,56.50L195.78,62.00L203.75,74.42L204.32,75.91L203.61,76.77Z" fill="url(#dg)"></path>
  <path d="M53.79,101.60L52.94,101.31L52.63,100.09L53.32,95.66L59.52,78.06L65.38,67.61L69.86,61.00L72.46,58.10L75.86,55.40L81.87,53.80L93.76,53.07L105.33,53.61L107.33,53.89L108.50,54.67L112.94,54.67L122.09,56.19L142.24,62.00L157.26,67.21L168.23,72.06L170.21,73.53L167.21,74.00L153.25,74.11L133.25,78.12L125.56,80.99L116.50,85.20L105.58,92.97L101.25,95.02L96.53,94.63L85.32,91.22L79.73,90.39L72.91,90.10L64.50,91.09L61.63,92.31L58.54,94.72L54.00,101.62Z" fill="url(#lg)"></path>
  <path d="M22.98,101.01L20.37,101.00L18.50,100.38L14.02,96.89L11.87,94.50L10.96,91.05L10.73,86.51L11.42,84.15L13.15,81.73L21.52,74.28L34.26,67.19L53.35,59.81L64.05,56.99L64.69,57.57L64.04,59.39L61.25,62.46L55.34,73.91L50.98,87.56L48.81,91.75L45.44,93.43L35.50,95.11L23.25,101.00Z" fill="url(#lg)"></path>
  <path d="M180.25,190.56L179.55,190.51L179.06,189.72L177.52,178.28L176.54,177.37L175.67,172.07L172.66,163.43L164.21,147.36L156.95,135.37L149.67,127.26L134.13,112.04L132.75,111.48L132.33,112.43L132.76,111.87L132.50,111.13L127.27,107.06L121.37,103.54L120.03,104.56L119.17,103.55L119.87,102.82L119.50,102.20L110.19,97.33L110.97,95.66L113.05,94.45L126.25,87.85L133.51,85.06L152.75,80.74L159.91,80.43L166.09,80.92L168.60,82.29L172.80,86.47L177.29,95.37L180.88,104.78L184.21,117.37L186.06,128.25L187.13,138.94L187.07,154.14L186.28,164.82L182.18,187.71L181.37,190.05L180.45,190.50Z" fill="url(#dg)"></path>
  <path d="M192.51,208.48L191.89,207.84L192.52,205.82L195.54,201.50L201.63,188.25L206.95,168.18L207.68,160.50L207.80,149.73L206.03,134.08L203.29,124.74L199.57,114.75L190.49,99.77L183.81,91.55L178.97,87.03L175.73,84.77L166.23,79.98L178.00,79.71L179.50,80.63L188.14,81.97L199.02,85.61L207.93,89.56L215.88,94.19L223.25,99.34L232.57,107.67L236.57,112.03L239.73,118.02L241.23,124.49L240.87,129.33L238.47,136.84L233.98,147.50L227.18,160.72L211.83,184.75L192.75,208.55Z" fill="url(#dg)"></path>
  <path d="M67.50,200.01L56.76,200.06L45.58,197.92L38.42,195.20L30.61,190.46L23.43,182.37L16.07,171.79L6.34,152.12L3.21,144.21L4.94,144.74L6.75,146.22L9.70,152.25L18.53,163.93L27.43,172.50L28.45,172.88L29.51,172.32L29.38,173.75L35.50,178.48L45.75,184.53L56.99,189.45L70.21,193.38L81.75,195.75L81.61,196.41L80.18,197.05L67.28,200.06Z" fill="url(#lg)"></path>
  <path d="M104.75,213.00L82.04,211.94L69.00,209.10L63.75,208.94L60.73,207.64L60.37,206.85L62.78,205.86L73.81,204.50L89.00,199.63L96.25,195.83L98.25,195.60L109.78,187.99L123.54,175.50L132.92,164.10L142.71,148.04L144.48,144.27L146.40,137.56L148.37,135.46L152.15,138.70L155.55,142.75L165.55,160.99L168.00,168.22L170.99,180.00L171.70,188.67L166.89,192.87L161.40,196.68L151.50,201.90L143.33,205.35L124.50,210.94L105.21,212.96Z" fill="url(#lg)"></path>
  <path d="M132.50,260.01L125.23,259.63L120.78,258.39L100.01,248.95L88.14,242.72L71.87,232.59L61.48,225.38L45.96,212.15L45.08,210.85L46.14,209.67L47.46,210.02L54.50,215.36L55.39,215.39L56.66,214.48L57.59,216.03L60.84,217.32L61.90,219.05L65.83,220.43L69.89,223.43L83.70,228.18L96.65,230.23L115.25,229.61L123.53,227.74L134.15,224.51L150.08,216.92L164.70,203.70L169.32,198.50L173.22,192.16L174.56,191.10L174.85,199.25L172.08,210.29L167.78,221.50L161.71,232.75L154.36,243.50L145.41,253.47L139.75,257.81L132.88,259.90Z" fill="url(#lg)"></path>
</svg>